#!OML:ASF H:\Terrain\Patient Classification 1\Terrain2\Thursday\justin.ASF
:FULLY-SPECIFIED
:DEGREES
1048
root 30.9331 17.8116 0.312356 -173.116 -86.3559 -185.325
lowerback 5.95658 0.985736 0.883046
upperback 2.41538 1.3129 3.15939
thorax -0.905873 0.609692 2.66889
lowerneck -13.317 -0.734437 -10.1993
upperneck 38.3651 -0.889021 2.94147
head 15.9268 -2.00491 2.78771
rclavicle 1.0138e-014 3.97569e-015
rhumerus -29.2295 -3.37289 -81.8091
rradius 35.7373
rwrist -9.85313
rhand -18.5279 13.627
rfingers 7.12502
rthumb 7.76085 -16.2106
lclavicle 1.0138e-014 3.97569e-015
lhumerus -38.2711 17.97 73.9482
lradius 23.9234
lwrist -2.27833
lhand -16.9644 23.4761
lfingers 7.12502
lthumb 9.26971 53.2523
rfemur -10.9108 -0.0241897 19.9446
rtibia 33.8237
rfoot -20.632 3.18502
rtoes 16.9115
lfemur -9.02442 -5.82079 -15.7283
ltibia 27.4862
lfoot -13.8567 -14.8745
ltoes 22.0139
1049
root 30.9263 17.8012 0.277789 -170.954 -86.29 -187.385
lowerback 5.89673 1.01023 0.621421
upperback 2.34954 1.33549 3.13351
thorax -0.94678 0.62222 2.78817
lowerneck -13.2882 -0.651948 -9.84182
upperneck 38.3552 -0.732046 2.56856
head 15.8975 -1.93834 2.587
rclavicle -1.47101e-014 1.59028e-014
rhumerus -29.2328 -3.38958 -81.8073
rradius 35.7626
rwrist -9.37037
rhand -18.0818 13.4616
rfingers 7.12502
rthumb 8.19139 -16.3596
lclavicle -1.47101e-014 1.59028e-014
lhumerus -38.6518 17.6952 74.2972
lradius 24.2329
lwrist -1.60943
lhand -17.4434 23.8249
lfingers 7.12502
lthumb 8.80749 53.6211
rfemur -10.9655 -0.430028 20.0024
rtibia 33.6026
rfoot -20.6156 2.62652
rtoes 12.5039
lfemur -9.04389 -6.32141 -15.8026
ltibia 27.4013
lfoot -13.891 -14.3455
ltoes 21.7879
1050
root 30.9143 17.8272 0.244592 -170.556 -86.3724 -187.683
lowerback 5.80008 0.959343 0.554516
upperback 2.33469 1.26364 3.11371
thorax -0.906136 0.586781 2.81141
lowerneck -13.4736 -0.571035 -9.56582
upperneck 38.4686 -0.6054 2.39524
head 15.9867 -1.87393 2.48584
rclavicle -7.95139e-016 -2.06736e-014
rhumerus -29.1346 -3.18711 -81.9868
rradius 35.9361
rwrist -9.80915
rhand -17.9648 12.9922
rfingers 7.12502
rthumb 8.30426 -16.8246
lclavicle -7.95139e-016 -2.06736e-014
lhumerus -38.8535 17.5885 74.5781
lradius 24.3935
lwrist -1.19598
lhand -17.2706 23.5717
lfingers 7.12502
lthumb 8.97421 53.3608
rfemur -10.8885 -0.316935 20.021
rtibia 33.4567
rfoot -20.4975 3.31673
rtoes 16.9846
lfemur -9.02122 -6.62854 -15.7443
ltibia 27.2129
lfoot -14.0315 -13.9072
ltoes 20.3438
1051
root 30.9062 17.8327 0.213158 -174.924 -86.4744 -183.3
lowerback 5.80599 0.953571 0.852008
upperback 2.34603 1.26971 3.12772
thorax -0.891751 0.589912 2.65799
lowerneck -13.5801 -0.561067 -9.52357
upperneck 38.5158 -0.668759 2.60604
head 16.0389 -1.86553 2.56183
rclavicle -7.35503e-015 -1.82882e-014
rhumerus -29.0769 -3.07313 -82.1411
rradius 36.0622
rwrist -10.0532
rhand -17.9832 12.4266
rfingers 7.12502
rthumb 8.28657 -17.3908
lclavicle -7.35503e-015 -1.82882e-014
lhumerus -39.0216 17.6458 74.7306
lradius 24.558
lwrist -1.06192
lhand -16.5478 23.1136
lfingers 7.12502
lthumb 9.67166 52.8716
rfemur -10.7772 -0.739729 20.4987
rtibia 33.3164
rfoot -20.574 3.11055
rtoes 14.5833
lfemur -8.91222 -6.8036 -15.3461
ltibia 27.0774
lfoot -13.9367 -13.6368
ltoes 20.4443
1052
root 30.899 17.8468 0.178075 -173.512 -86.4778 -184.682
lowerback 5.79546 1.06608 0.838524
upperback 2.34839 1.4198 3.023
thorax -0.887333 0.666389 2.54757
lowerneck -13.5858 -0.642685 -9.58027
upperneck 38.4623 -0.851798 2.83776
head 16.0277 -1.91182 2.64298
rclavicle 3.97569e-015 2.14687e-014
rhumerus -29.0464 -3.50782 -82.0967
rradius 36.0815
rwrist -9.61648
rhand -18.01 12.4122
rfingers 7.12502
rthumb 8.26064 -17.4063
lclavicle 3.97569e-015 2.14687e-014
lhumerus -39.1324 17.4271 75.112
lradius 24.8112
lwrist -0.689107
lhand -16.4763 22.9371
lfingers 7.12502
lthumb 9.74065 52.6919
rfemur -10.6812 -0.0574279 20.4477
rtibia 33.258
rfoot -20.572 3.70551
rtoes 20.2019
lfemur -8.77276 -6.90217 -15.3493
ltibia 26.861
lfoot -13.6379 -13.3999
ltoes 21.3462
1053
root 30.8925 17.8524 0.13559 -167.084 -86.4524 -190.981
lowerback 5.69817 1.05907 0.168914
upperback 2.34415 1.37739 2.9793
thorax -0.850842 0.644603 2.88371
lowerneck -13.8214 -0.612526 -9.54345
upperneck 38.4879 -0.76031 2.79592
head 16.0904 -1.87136 2.63564
rclavicle -1.03368e-014 2.38542e-015
rhumerus -28.8368 -3.43767 -82.149
rradius 36.1268
rwrist -9.60547
rhand -18.2535 12.5117
rfingers 7.12502
rthumb 8.02565 -17.3159
lclavicle -1.03368e-014 2.38542e-015
lhumerus -39.3335 17.3676 75.569
lradius 25.1111
lwrist -0.263336
lhand -16.4723 22.782
lfingers 7.12502
lthumb 9.74453 52.5366
rfemur -10.741 0.233011 20.1668
rtibia 33.1833
rfoot -20.5716 3.64559
rtoes 21.9188
lfemur -8.88059 -6.93165 -15.6357
ltibia 26.7935
lfoot -13.5892 -13.3162
ltoes 21.5616
1054
root 30.8859 17.8506 0.0965597 -166.514 -86.5271 -191.478
lowerback 5.71956 0.970386 -0.266042
upperback 2.32906 1.23789 3.15923
thorax -0.884264 0.572095 3.32429
lowerneck -14.055 -0.529512 -9.50562
upperneck 38.4897 -0.535151 2.61542
head 16.1303 -1.79423 2.58933
rclavicle -4.77083e-015 -4.77083e-015
rhumerus -28.6252 -2.89359 -82.1408
rradius 36.159
rwrist -10.0605
rhand -18.6399 12.4687
rfingers 7.12502
rthumb 7.65273 -17.3728
lclavicle -4.77083e-015 -4.77083e-015
lhumerus -39.5298 17.4182 76.1139
lradius 25.2965
lwrist -0.0862235
lhand -16.4487 22.7385
lfingers 7.12502
lthumb 9.76729 52.492
rfemur -10.7618 -0.0789894 20.296
rtibia 33.1022
rfoot -20.5184 3.63658
rtoes 20.8316
lfemur -8.96007 -6.82846 -15.5075
ltibia 26.7629
lfoot -13.7682 -13.2951
ltoes 20.1086
1055
root 30.8796 17.8444 0.072109 -176.398 -86.7651 -181.656
lowerback 5.877 0.920213 0.29151
upperback 2.31528 1.19826 3.42923
thorax -0.977772 0.550106 3.29009
lowerneck -13.9569 -0.543361 -9.64021
upperneck 38.2992 -0.46666 2.5091
head 16.0058 -1.78817 2.57519
rclavicle -1.05356e-014 -6.36111e-015
rhumerus -28.555 -2.81007 -81.894
rradius 36.0585
rwrist -10.1395
rhand -18.5233 12.7778
rfingers 7.12502
rthumb 7.76531 -17.0597
lclavicle -1.05356e-014 -6.36111e-015
lhumerus -39.6312 17.2078 76.8016
lradius 25.4268
lwrist 0.25215
lhand -16.2417 22.4809
lfingers 7.12502
lthumb 9.96696 52.2249
rfemur -10.5942 -0.750657 20.9985
rtibia 32.9826
rfoot -20.4703 4.07272
rtoes 20.0928
lfemur -8.92249 -7.10759 -14.7854
ltibia 26.8966
lfoot -14.0314 -12.9926
ltoes 19.4618
1056
root 30.8739 17.8352 0.0497951 -189.073 -86.8528 -169.013
lowerback 5.96786 0.913298 1.19659
upperback 2.32285 1.23376 3.56341
thorax -1.00581 0.566584 2.91529
lowerneck -13.8594 -0.603083 -9.79165
upperneck 38.1441 -0.546101 2.61232
head 15.9109 -1.81842 2.63163
rclavicle 4.17448e-015 2.8625e-014
rhumerus -28.4972 -3.06129 -81.7142
rradius 35.9657
rwrist -10.0556
rhand -18.1931 13.0834
rfingers 7.12502
rthumb 8.08401 -16.742
lclavicle 4.17448e-015 2.8625e-014
lhumerus -39.6035 16.7268 77.4225
lradius 25.5274
lwrist 0.53495
lhand -15.7439 21.769
lfingers 7.12502
lthumb 10.4472 51.4894
rfemur -10.4645 -1.25281 21.8605
rtibia 32.8751
rfoot -20.5401 4.10379
rtoes 19.2237
lfemur -8.83199 -7.6535 -13.9753
ltibia 26.8874
lfoot -14.0853 -12.5844
ltoes 20.5638
1057
root 30.8638 17.8203 0.0190087 -189.727 -86.8336 -168.323
lowerback 5.93108 0.964761 1.24491
upperback 2.28791 1.30651 3.5232
thorax -1.02241 0.604255 2.8416
lowerneck -13.7313 -0.605141 -9.80454
upperneck 38.0799 -0.610271 2.74728
head 15.8508 -1.82527 2.6807
rclavicle 6.95746e-015 1.98785e-014
rhumerus -28.6095 -3.1851 -81.7163
rradius 36.1567
rwrist -10.4005
rhand -18.6199 12.8542
rfingers 7.12502
rthumb 7.67202 -16.9866
lclavicle 6.95746e-015 1.98785e-014
lhumerus -39.5853 15.9641 78.0382
lradius 25.6303
lwrist 0.797391
lhand -15.1855 21.2501
lfingers 7.12502
lthumb 10.9858 50.9426
rfemur -10.4817 -2.04597 22.1464
rtibia 32.7635
rfoot -20.7901 3.35329
rtoes 12.4668
lfemur -8.88225 -7.65139 -13.8695
ltibia 26.9436
lfoot -14.1967 -12.391
ltoes 19.5206
1058
root 30.8472 17.8488 -0.019954 -185.105 -86.9228 -172.845
lowerback 5.82124 0.902316 0.888249
upperback 2.21277 1.2088 3.41465
thorax -1.04005 0.558203 2.93747
lowerneck -13.6183 -0.506955 -9.65204
upperneck 38.0258 -0.519949 2.73691
head 15.7845 -1.76622 2.66263
rclavicle -1.33186e-014 -4.85035e-014
rhumerus -28.726 -3.23972 -81.8647
rradius 36.3514
rwrist -10.4326
rhand -19.0206 12.6004
rfingers 7.12502
rthumb 7.2853 -17.2542
lclavicle -1.33186e-014 -4.85035e-014
lhumerus -39.6658 15.6945 78.3484
lradius 25.7248
lwrist 0.695064
lhand -14.2806 21.1664
lfingers 7.12502
lthumb 11.8585 50.8107
rfemur -10.3677 -0.555666 21.762
rtibia 32.7098
rfoot -20.5535 4.8066
rtoes 24.5585
lfemur -8.92062 -7.44099 -14.0504
ltibia 26.8979
lfoot -14.2787 -12.374
ltoes 18.197
1059
root 30.8381 17.8369 -0.0466103 -189.149 -87.0524 -168.645
lowerback 5.69247 0.779926 1.15908
upperback 2.17031 1.05865 3.35404
thorax -0.99914 0.484867 2.73326
lowerneck -13.7301 -0.435078 -9.33569
upperneck 38.0774 -0.459983 2.6412
head 15.8282 -1.71113 2.57633
rclavicle -5.76476e-015 -7.95139e-016
rhumerus -28.6402 -3.54617 -81.9812
rradius 36.2909
rwrist -9.98403
rhand -19.0151 12.6178
rfingers 7.12502
rthumb 7.29059 -17.2366
lclavicle -5.76476e-015 -7.95139e-016
lhumerus -39.6456 15.7833 78.4792
lradius 25.7853
lwrist 0.105285
lhand -13.6083 21.1729
lfingers 7.12502
lthumb 12.5068 50.7787
rfemur -10.4574 -0.962885 22.1838
rtibia 32.6602
rfoot -20.7197 4.27568
rtoes 21.2485
lfemur -9.08967 -7.22658 -13.6753
ltibia 26.8962
lfoot -14.0826 -12.8392
ltoes 19.1195
1060
root 30.8289 17.8327 -0.072145 -197.495 -87.0485 -160.195
lowerback 5.61361 0.768873 1.64434
upperback 2.14378 1.06597 3.36849
thorax -0.973823 0.489058 2.47538
lowerneck -13.8098 -0.447462 -9.09424
upperneck 38.1933 -0.557436 2.65265
head 15.911 -1.72111 2.5243
rclavicle 3.18055e-015 -1.43125e-014
rhumerus -28.6297 -4.04829 -81.8882
rradius 36.2177
rwrist -9.79041
rhand -19.0487 12.7906
rfingers 7.12502
rthumb 7.25814 -17.0649
lclavicle 3.18055e-015 -1.43125e-014
lhumerus -39.569 15.2584 78.9596
lradius 25.9796
lwrist -0.255416
lhand -13.6078 21.1109
lfingers 7.12502
lthumb 12.5073 50.7166
rfemur -10.4715 -0.977658 22.7729
rtibia 32.6028
rfoot -20.6142 4.10794
rtoes 20.7536
lfemur -9.17181 -6.88691 -13.067
ltibia 26.8299
lfoot -13.8175 -13.3592
ltoes 19.4046
1061
root 30.8187 17.8279 -0.100364 -200.039 -87.1393 -157.65
lowerback 5.63559 0.701558 1.69351
upperback 2.13307 0.979658 3.39731
thorax -0.993965 0.445594 2.48283
lowerneck -13.8504 -0.410114 -9.15559
upperneck 38.2654 -0.541015 2.80153
head 15.9553 -1.70719 2.60429
rclavicle -3.18055e-015 -6.36111e-015
rhumerus -28.6448 -4.14749 -81.7604
rradius 36.2455
rwrist -9.97544
rhand -19.0172 12.9904
rfingers 7.12502
rthumb 7.28857 -16.8641
lclavicle -3.18055e-015 -6.36111e-015
lhumerus -39.5744 14.4966 79.6732
lradius 26.3116
lwrist -0.291909
lhand -13.8872 21.2156
lfingers 7.12502
lthumb 12.2379 50.8376
rfemur -10.3474 -1.17575 22.9701
rtibia 32.4333
rfoot -20.4418 4.06342
rtoes 20.5533
lfemur -9.25997 -7.12185 -12.8633
ltibia 27.0524
lfoot -13.8137 -13.261
ltoes 19.4805
1062
root 30.8069 17.8312 -0.129437 -200.805 -87.3047 -156.879
lowerback 5.62574 0.582459 1.52347
upperback 2.15254 0.809591 3.53735
thorax -0.967485 0.358286 2.73464
lowerneck -13.9903 -0.386569 -9.5099
upperneck 38.3421 -0.430676 2.93189
head 16.0231 -1.69881 2.745
rclavicle 9.93923e-016 1.43125e-014
rhumerus -28.6083 -3.69829 -81.5826
rradius 36.3598
rwrist -10.4462
rhand -19.1403 12.9641
rfingers 7.12502
rthumb 7.16977 -16.8945
lclavicle 9.93923e-016 1.43125e-014
lhumerus -39.5991 14.3352 80.382
lradius 26.5552
lwrist -0.687269
lhand -14.029 21.2793
lfingers 7.12502
lthumb 12.1011 50.9094
rfemur -10.2149 -1.10297 23.0239
rtibia 32.2745
rfoot -20.4064 4.05599
rtoes 22.0319
lfemur -9.33106 -7.53724 -12.7932
ltibia 27.2515
lfoot -13.7998 -13.0809
ltoes 20.0515
